<?xml version="1.0" encoding="UTF-8" standalone="no"?>
<svg
   xmlns:dc="http://purl.org/dc/elements/1.1/"
   xmlns:cc="http://creativecommons.org/ns#"
   xmlns:rdf="http://www.w3.org/1999/02/22-rdf-syntax-ns#"
   xmlns:svg="http://www.w3.org/2000/svg"
   xmlns="http://www.w3.org/2000/svg"
   xmlns:sodipodi="http://sodipodi.sourceforge.net/DTD/sodipodi-0.dtd"
   xmlns:inkscape="http://www.inkscape.org/namespaces/inkscape"
   width="53.180504mm"
   height="53.823021mm"
   viewBox="0 0 53.180504 53.823021"
   version="1.1"
   id="svg8"
   inkscape:version="1.0.1 (3bc2e813f5, 2020-09-07)"
   sodipodi:docname="icon.svg">
  <defs
     id="defs2" />
  <sodipodi:namedview
     id="base"
     pagecolor="#ffffff"
     bordercolor="#666666"
     borderopacity="1.0"
     inkscape:pageopacity="0.0"
     inkscape:pageshadow="2"
     inkscape:zoom="2"
     inkscape:cx="318.41896"
     inkscape:cy="94.123854"
     inkscape:document-units="mm"
     inkscape:current-layer="layer1"
     inkscape:document-rotation="0"
     showgrid="false"
     inkscape:snap-global="false"
     fit-margin-top="0"
     fit-margin-left="0"
     fit-margin-right="0"
     fit-margin-bottom="0"
     inkscape:window-width="1920"
     inkscape:window-height="1057"
     inkscape:window-x="-8"
     inkscape:window-y="-8"
     inkscape:window-maximized="1" />
  <metadata
     id="metadata5">
    <rdf:RDF>
      <cc:Work
         rdf:about="">
        <dc:format>image/svg+xml</dc:format>
        <dc:type
           rdf:resource="http://purl.org/dc/dcmitype/StillImage" />
        <dc:title></dc:title>
      </cc:Work>
    </rdf:RDF>
  </metadata>
  <g
     inkscape:label="Layer 1"
     inkscape:groupmode="layer"
     id="layer1"
     transform="translate(-10.227088,-64.589501)">
    <path
       d="m 34.433997,64.738711 c -5.823614,0.774012 -11.187962,2.8302 -15.610419,6.811994 -15.6880734,14.124914 -8.73138,40.589335 11.377083,45.951375 2.956376,0.7882 6.210826,1.13348 9.260416,0.75909 4.73049,-0.58102 9.35805,-2.16588 13.22917,-4.99348 17.88133,-13.06036 12.55474,-43.384151 -9.78959,-47.953063 -2.76939,-0.566288 -5.6425,-0.951272 -8.46666,-0.575916 m 18.25625,45.660629 c 1.95977,-3.5343 3.27395,-6.55161 3.81635,-10.58333 1.41023,-10.485119 -8.52567,-20.448428 -18.63302,-20.891658 -7.777241,-0.341074 -15.121783,4.176607 -18.584518,11.102075 -1.352285,2.704571 -2.062506,5.708121 -2.05277,8.73125 0.01373,4.272493 1.683306,7.733243 3.703955,11.377083 -3.097662,-1.60814 -5.31069,-5.63483 -6.685624,-8.73125 -6.0030334,-13.518567 1.759427,-29.750622 15.946041,-33.753371 9.313596,-2.627826 19.660126,0.593592 25.806136,8.088788 8.00841,9.766036 7.61021,26.963423 -3.31655,34.660413 m -4.49792,1.5875 c 1.09511,-2.63022 1.91955,-4.76911 1.84811,-7.67291 -0.38258,-15.57941 -23.538201,-16.26857 -26.167524,-1.32292 -0.56478,3.21019 0.347768,5.80311 1.565248,8.73125 -8.24275,-5.80707 -7.652729,-18.918766 -0.982583,-25.588832 6.073775,-6.073802 15.710609,-6.653822 22.678419,-1.835759 2.48999,1.721829 4.29471,4.094745 5.62081,6.787092 1.51209,3.06996 1.91875,6.42911 1.53617,9.789579 -0.47414,4.16322 -2.617,8.65849 -6.09865,11.1125 m -3.43958,0.79375 c 0.6223,-2.40506 0.66489,-4.6564 -0.62521,-6.87916 -3.69888,-6.372228 -13.174771,-5.17499 -15.238363,1.85208 -0.455321,1.55046 -0.301916,3.19775 -0.01143,4.7625 -4.53001,-3.49832 -3.774334,-11.2051 -0.215794,-15.070931 4.932577,-5.358341 14.066997,-4.357158 17.816137,1.841765 1.15227,1.904996 1.45971,3.903666 1.44939,6.085416 -0.0127,2.68393 -0.98901,5.72029 -3.17473,7.40833 m -7.67292,-9.07124 c 8.03037,0.16616 7.77081,12.4214 -0.26458,12.42087 -8.167505,-2.7e-4 -7.846459,-12.58888 0.26458,-12.42087 z"
       id="path847" />
  </g>
</svg>
