<svg xmlns="http://www.w3.org/2000/svg" width="50" height="52" viewBox="0 0 50 52">
    <g fill="none" fill-rule="evenodd" stroke-linecap="round" stroke-linejoin="round" stroke-width="1.5">
        <path stroke="#00C4F2" d="M28.75 28a3.75 3.75 0 1 1-7.5 0 3.75 3.75 0 0 1 7.5 0z"/>
        <path stroke="#00C4F2" d="M40 30.069V25.93l-3.558-1.186a11.89 11.89 0 0 0-1.049-2.534l1.676-3.354-2.925-2.927-3.355 1.678a11.811 11.811 0 0 0-2.534-1.05L27.069 13h-4.138l-1.186 3.558c-.891.253-1.741.607-2.534 1.05l-3.355-1.678-2.925 2.927 1.676 3.354a11.89 11.89 0 0 0-1.049 2.534L10 25.93v4.138l3.558 1.186a11.92 11.92 0 0 0 1.049 2.535l-1.676 3.354 2.925 2.926 3.355-1.677c.793.443 1.643.796 2.534 1.049L22.931 43h4.138l1.186-3.558a11.808 11.808 0 0 0 2.534-1.05l3.355 1.678 2.925-2.926-1.676-3.354a11.92 11.92 0 0 0 1.049-2.535L40 30.069z"/>
        <path stroke="#7C7C7C" d="M48 28c0 12.703-10.298 23-23 23S2 40.703 2 28 12.298 5 25 5s23 10.297 23 23zM14.438 3.145A7.961 7.961 0 0 0 9 1a8 8 0 0 0-8 8 7.96 7.96 0 0 0 1.308 4.377 27.101 27.101 0 0 1 12.13-10.232zM47.692 13.377A7.961 7.961 0 0 0 49 9a8 8 0 0 0-8-8 7.962 7.962 0 0 0-5.439 2.145 27.101 27.101 0 0 1 12.131 10.232zM10.306 45.694L5 51M39.693 45.694L45 51M7.47 7.47l2.826 2.826M42.472 7.412l-2.837 2.836"/>
    </g>
</svg>
