<svg xmlns="http://www.w3.org/2000/svg" width="60" height="60" viewBox="0 0 60 60">
    <g fill="none" fill-rule="evenodd" stroke-width="1.5">
        <path stroke="#7C7C7C" d="M20.537 21.74c-.976-.86-2.586-1.537-4.54-1.884a.575.575 0 0 1-.482-.59c.014-.316.014-.652.012-1.003 0-.802.966-1.769 1.019-2.896.32-.668.505-1.33.505-1.844 0-.338-.083-.558-.228-.705.078-.42.146-.863.228-1.32.33-1.838-.311-3.162-1.925-3.736-.582-.207-2.998-.625-3.898-1.497-.326-.315-.103 1.462-.398 1.595-1.581.711-2.208 1.817-1.88 3.638.082.457.149.9.228 1.32-.145.147-.228.367-.228.705 0 .513.184 1.176.505 1.844.053 1.127 1.019 2.038 1.019 2.896-.002.351-.002.687.012 1.003a.577.577 0 0 1-.483.59c-1.954.347-3.564 1.023-4.54 1.884"/>
        <path stroke="#7C7C7C" d="M25 13c0 6.627-5.373 12-12 12S1 19.627 1 13 6.373 1 13 1s12 5.373 12 12zM54.537 55.74c-.976-.86-2.586-1.537-4.54-1.884a.575.575 0 0 1-.482-.59c.014-.316.014-.652.012-1.003 0-.802.966-1.769 1.019-2.896.32-.668.505-1.33.505-1.844 0-.338-.083-.558-.228-.705.078-.42.146-.863.228-1.32.33-1.838-.311-3.162-1.925-3.736-.582-.207-2.998-.625-3.898-1.497-.326-.315-.103 1.462-.398 1.595-1.581.711-2.208 1.817-1.88 3.638.082.457.149.9.228 1.32-.145.147-.228.367-.228.705 0 .513.184 1.176.505 1.844.053 1.127 1.019 2.038 1.019 2.896-.002.351-.002.687.012 1.003a.577.577 0 0 1-.483.59c-1.954.347-3.564 1.023-4.54 1.884"/>
        <path stroke="#7C7C7C" d="M59 47c0 6.627-5.373 12-12 12s-12-5.373-12-12 5.373-12 12-12 12 5.373 12 12z"/>
        <path stroke="#00C4F2" stroke-linecap="round" stroke-linejoin="round" d="M31 13h16v18"/>
        <path stroke="#00C4F2" stroke-linecap="round" stroke-linejoin="round" d="M52 26l-5 5-5-5M29 47H13V29"/>
        <path stroke="#00C4F2" stroke-linecap="round" stroke-linejoin="round" d="M8 34l5-5 5 5"/>
    </g>
</svg>
