<svg xmlns="http://www.w3.org/2000/svg" width="60" height="60" viewBox="0 0 60 60">
    <g fill="none" fill-rule="evenodd" stroke-linejoin="round" stroke-width="1.5">
        <path stroke="#00C4F2" stroke-linecap="round" d="M16.479 27.491c.516 1.012-.222 1.898-.621 1.967-2.117.362-3.697 1.052-4.856 1.911A12.946 12.946 0 0 0 19.993 35h.02a12.949 12.949 0 0 0 8.998-3.643c-1.154-.874-2.752-1.572-4.935-1.899-.397-.06-1.057-.98-.625-1.967"/>
        <path stroke="#00C4F2" stroke-linecap="round" d="M25.544 19.751c.045-.253.322-.491.423-1.39.27-2.389-1.168-4.119-3.126-4.814-.786-.279-3.99-1.388-4.668.68-.237-.881-.734-.728-1.133-.548-2.084.936-3.578 2.412-2.951 5.005.082.338.356.372.64 1.128-.2.2-.598.502-.598.965 0 .703.179 2.125.977 2.527.072 1.545 1.2 3.958 1.2 3.958 1.412 1.277 2.588 1.833 3.118 1.833.023 0 .252-.134.608-.134.368 0 .619.134.642.134.195 0 1.914-.76 2.953-1.833 0 0 1.126-2.413 1.198-3.958.8-.435.977-1.824.977-2.527 0-.463-.398-.765-.597-.965.049-.264.337-.061.337-.061z"/>
        <path stroke="#00C4F2" stroke-linecap="round" d="M14.44 19.2c-.062-1.178 2.004-1.855 2.58-1.82-.2.696.808 1.254 2.068 1.388 2.496.266 6.947-1.532 6.608.552M18.19 21.948h.099M21.71 21.948h.099M21.041 26.161c-.694.29-1.355.321-1.973 0h1.973zM54.654 20H57a2 2 0 0 1 0 4h-1.884l-.462-4z"/>
        <path stroke="#7C7C7C" stroke-linecap="round" d="M39 10.967V9l-8-8H1v50h33"/>
        <path stroke="#7C7C7C" stroke-linecap="round" d="M31 1v8h8M43.594 17.17v-.481c0-1.446.963-1.927 1.926-1.927 1.12 0 1.925.909 1.925 2.03v4.23m0-4.912c.753-.415 1.303-.412 1.75-.385 1.164.069 2.11.945 2.11 2.11v3.753m-9.157 10.026c-3.37-2.89-5.07-5.016-5.346-5.98-.132-.462-.18-1.005-.164-1.621m.793-4.483c.088-.235.245-.506.33-.666.259-.476 1.98-.932 1.98-.932m0 5.135c0-2.045 0-4.934.165-7.03.07-.9.647-1.757 1.88-1.757 1.055 0 1.807.825 1.807 1.656v4.604M40.704 33.059v-2.612M51.357 17.777a3.214 3.214 0 0 1 1.174-.126c1.234.09 1.835.963 2.136 2.407.344 1.654.48 3.13.48 6.26 0 2.567-1.362 3.852-1.924 4.814v1.926M39.74 22.947v1.444M38 59V38h17v21"/>
        <path stroke="#00C4F2" d="M32.847 20h5.895M38.742 24h-5.895"/>
        <path stroke="#7C7C7C" stroke-linecap="round" d="M39.742 34.022V38h14.444v-3.98a.963.963 0 0 0-.963-.962H40.705a.963.963 0 0 0-.963.963z"/>
        <path stroke="#00C4F2" stroke-linecap="round" d="M33 22c0 7.18-5.82 13-13 13S7 29.18 7 22 12.82 9 20 9s13 5.82 13 13z"/>
    </g>
</svg>
