<svg xmlns="http://www.w3.org/2000/svg" width="44" height="56" viewBox="0 0 44 56">
    <g fill="none" fill-rule="evenodd" stroke-linecap="round" stroke-linejoin="round" stroke-width="1.5">
        <path stroke="#7C7C7C" d="M5 29"/>
        <path stroke="#00C4F2" d="M9 29h10"/>
        <path stroke="#7C7C7C" d="M25 29"/>
        <path stroke="#00C4F2" d="M29 29h10"/>
        <path stroke="#7C7C7C" d="M5 33"/>
        <path stroke="#00C4F2" d="M9 33h10"/>
        <path stroke="#7C7C7C" d="M25 33"/>
        <path stroke="#00C4F2" d="M29 33h10"/>
        <path stroke="#7C7C7C" d="M5 37"/>
        <path stroke="#00C4F2" d="M9 37h10"/>
        <path stroke="#7C7C7C" d="M25 37"/>
        <path stroke="#00C4F2" d="M29 37h10"/>
        <path stroke="#7C7C7C" d="M5 41"/>
        <path stroke="#00C4F2" d="M9 41h10"/>
        <path stroke="#7C7C7C" d="M25 41"/>
        <path stroke="#00C4F2" d="M29 41h10"/>
        <path stroke="#7C7C7C" d="M5 45"/>
        <path stroke="#00C4F2" d="M9 45h10"/>
        <path stroke="#7C7C7C" d="M25 45"/>
        <path stroke="#00C4F2" d="M29 45h10"/>
        <path stroke="#7C7C7C" d="M20 15a8 8 0 0 1-8 8 8 8 0 1 1 0-16 8 8 0 0 1 8 8z"/>
        <path stroke="#00C4F2" d="M14.25 17h-4.5M15 19l-3-8-3 8"/>
        <path stroke="#7C7C7C" d="M40 15a8 8 0 0 1-8 8 8 8 0 1 1 0-16 8 8 0 0 1 8 8z"/>
        <path stroke="#00C4F2" d="M32 15h-2v-4h2a2 2 0 0 1 0 4zM32 19h-2v-4h2a2 2 0 0 1 0 4z"/>
        <path stroke="#7C7C7C" d="M1 1v48l6 6h36V1z"/>
        <path stroke="#7C7C7C" d="M7 55v-6H1"/>
    </g>
</svg>
