<svg xmlns="http://www.w3.org/2000/svg" width="60" height="58" viewBox="0 0 60 58">
    <g fill="none" fill-rule="evenodd" stroke-linecap="round" stroke-linejoin="round" stroke-width="1.5">
        <path stroke="#00C4F2" d="M32.784 18a1 1 0 1 1-2 0 1 1 0 0 1 2 0zM40.784 26a1 1 0 1 1-2 0 1 1 0 0 1 2 0zM50.784 16a1 1 0 1 1-2 0 1 1 0 0 1 2 0zM34.784 21l2 2M42.784 23l4-4"/>
        <path stroke="#7C7C7C" d="M24.784 39h34V5h-36"/>
        <path stroke="#00C4F2" d="M26.784 35h28V9h-32"/>
        <path stroke="#7C7C7C" d="M6.866 21.7c-1.082 19.75.92 32.383.92 32.383A3 3 0 0 0 10.783 57h6a3 3 0 0 0 3-2.917s2-13.05.918-32.383"/>
        <path stroke="#7C7C7C" d="M21.223 34h.674c4.72 0 4.97-7.333 4.543-13.75-.252-3.771-3.066-6.648-10.255-7.16v-.698c1.833-.974 3.1-3.019 3.1-5.392 0-3.313-2.463-6-5.5-6-3.038 0-5.5 2.687-5.5 6 0 2.373 1.266 4.418 3.099 5.392v.701c-7.112.53-9.988 3.47-10.255 7.157C.7 26.167 1.129 34 5.67 34h.775M13.784 34v23"/>
    </g>
</svg>
