<svg xmlns="http://www.w3.org/2000/svg" width="60" height="58" viewBox="0 0 60 58">
    <g fill="none" fill-rule="evenodd" stroke-linecap="round" stroke-linejoin="round" stroke-width="1.5">
        <path stroke="#7C7C7C" d="M27.46 48.321l-.462 2.086 1.991 1.866a1.61 1.61 0 0 0 2.204 0l1.991-1.866-.542-2.252M31.288 52.232l.99 3.768h2.542l2.173-6.54M23.188 49.406L25.335 56h2.542l.99-3.768"/>
        <path stroke="#7C7C7C" d="M35.64 46.18c-.71 1.618.373 3.128 1.024 3.226 3.98.597 6.781 1.943 8.706 3.603.957.825.546 2.388-.693 2.64-2.9.59-8.104 1.403-14.748 1.403-6.76 0-11.827-.791-14.658-1.378-1.24-.258-1.638-1.832-.669-2.648 1.942-1.636 4.723-2.96 8.585-3.62.654-.112 1.865-1.566 1.018-3.225"/>
        <path stroke="#7C7C7C" d="M39.07 33.487c.076-.414.529-.806.696-2.278.443-3.918-1.917-6.756-5.127-7.896-1.29-.458-6.544-2.275-7.656 1.115-.39-1.445-1.204-1.193-1.857-.899-3.418 1.537-5.867 3.956-4.84 8.207.135.558.584.611 1.049 1.85-.327.33-.98.826-.98 1.584 0 1.153.293 3.486 1.602 4.144.119 2.533 1.969 6.49 1.969 6.49 2.315 2.094 4.243 3.006 5.112 3.006.037 0 .413-.219.997-.219.604 0 1.016.22 1.053.22.32 0 3.138-1.246 4.843-3.007 0 0 1.846-3.957 1.965-6.49 1.314-.714 1.602-2.99 1.602-4.144 0-.758-.653-1.255-.98-1.584.08-.432.553-.099.553-.099z"/>
        <path stroke="#7C7C7C" d="M20.863 32.584c-.104-1.931 3.286-3.042 4.23-2.987-.328 1.143 1.324 2.058 3.39 2.279 4.094.436 11.394-2.513 10.838.905M55.115 45.012"/>
        <path stroke="#00C4F2" d="M55.115 40.807V26.09"/>
        <path stroke="#7C7C7C" d="M4.885 23.988"/>
        <path stroke="#00C4F2" d="M4.885 28.193V42.91"/>
        <path stroke="#7C7C7C" d="M26.55 6.992"/>
        <path stroke="#00C4F2" d="M22.877 9.113l-12.86 7.424"/>
        <path stroke="#7C7C7C" d="M30 12"/>
        <path stroke="#00C4F2" d="M30 13.718v4.859"/>
        <path stroke="#7C7C7C" d="M51.82 17.598"/>
        <path stroke="#00C4F2" d="M48.146 15.477L35.287 8.053"/>
        <path stroke="#7C7C7C" d="M34 5a4 4 0 1 1-8 0 4 4 0 0 1 8 0zM59 20a4 4 0 1 1-8 0 4 4 0 0 1 8 0zM9 20a4 4 0 1 1-8 0 4 4 0 0 1 8 0zM9 49a4 4 0 1 1-8 0 4 4 0 0 1 8 0zM59 49a4 4 0 1 1-8 0 4 4 0 0 1 8 0z"/>
        <path stroke="#00C4F2" d="M41.219 40.807l7.31 4.205M12.018 45.18l6.531-3.27"/>
        <path stroke="#7C7C7C" d="M51.455 21.849"/>
        <path stroke="#00C4F2" d="M47.898 23.737l-4.68 2.678"/>
        <path stroke="#7C7C7C" d="M10.818 23.418"/>
        <path stroke="#00C4F2" d="M11.91 24.314l4.64 2.846"/>
        <path stroke="#7C7C7C" d="M25.924 37.09h.161M33.924 37.09h.161M24.475 36.15c.965-.407 1.966-.394 3 0M32.597 36.15c.965-.407 1.966-.394 3 0M31.686 44c-1.137.473-2.223.527-3.235 0"/>
    </g>
</svg>
