<svg xmlns="http://www.w3.org/2000/svg" width="58" height="60" viewBox="0 0 58 60">
    <g fill="none" fill-rule="evenodd" stroke-width="1.5">
        <path stroke="#7C7C7C" stroke-linecap="round" stroke-linejoin="round" d="M43 59H15a2 2 0 0 1-2-2V3a2 2 0 0 1 2-2h28a2 2 0 0 1 2 2v54a2 2 0 0 1-2 2zM45 47H13M13 9h32M27 5h4"/>
        <path stroke="#7C7C7C" stroke-linecap="round" stroke-linejoin="round" d="M31 53A2 2 0 1 1 27 52.999 2 2 0 0 1 31 53z"/>
        <path stroke="#00C4F2" d="M31.266 23.568c-.62-.22-3.194-.666-4.153-1.595-.348-.336-.11 1.557-.424 1.699-1.686.758-2.354 1.936-2.004 3.875.088.487.159.96.243 1.408-.155.155-.243.39-.243.75 0 .547.196 1.254.538 1.965.056 1.2 1.085 2.17 1.085 3.086-.001.373-.001.73.013 1.069a.613.613 0 0 1-.514.628c-1.878.333-3.453.954-4.507 1.746a11.95 11.95 0 0 0 7.7 2.8 11.95 11.95 0 0 0 7.7-2.8c-1.053-.792-2.628-1.413-4.506-1.746a.614.614 0 0 1-.515-.628c.015-.338.015-.696.014-1.07 0-.854 1.029-1.884 1.085-3.085.342-.711.538-1.418.538-1.965 0-.36-.088-.595-.243-.75.084-.448.155-.921.243-1.408.352-1.957-.331-3.368-2.05-3.98z"/>
        <path stroke="#00C4F2" d="M41 29c0 6.627-5.373 12-12 12s-12-5.373-12-12 5.373-12 12-12 12 5.373 12 12z"/>
        <path stroke="#7C7C7C" stroke-linecap="round" stroke-linejoin="round" d="M6.678 28H1M9 14.709l-2.008-2.008M9 41.291l-2.008 2.008M7.305 20.716l-3.92-1.663M7.305 35.284l-3.92 1.663M51.323 28H57M49 14.709l2.008-2.008M49 41.291l2.008 2.008M50.696 20.716l3.92-1.663M50.696 35.284l3.92 1.663"/>
    </g>
</svg>
