<svg xmlns="http://www.w3.org/2000/svg" width="244" height="72" viewBox="0 0 244 72">
    <g fill="none" fill-rule="evenodd">
        <path stroke="#00C4F2" stroke-width="2.386" d="M46 60.5a9.5 9.5 0 1 0-19 0 9.5 9.5 0 0 0 19 0z"/>
        <path stroke="#00C4F2" stroke-width="2.386" d="M52 54c0-8.836-7.163-16-16-16-8.836 0-16 7.164-16 16 0 8.837 7.164 16 16 16 8.837 0 16-7.163 16-16z"/>
        <path stroke="#00C4F2" stroke-width="2.386" d="M61 45.5C61 31.969 50.031 21 36.5 21S12 31.969 12 45.5 22.969 70 36.5 70 61 59.031 61 45.5z"/>
        <path stroke="#00C4F2" stroke-width="2.386" d="M70 36C70 17.222 54.777 2 36 2 17.222 2 2 17.222 2 36s15.222 34 34 34c18.777 0 34-15.222 34-34z"/>
        <path fill="#FFF" d="M102.752 27.785c.944-.733 1.416-1.787 1.416-3.162s-.472-2.43-1.416-3.162c-.944-.733-2.313-1.1-4.106-1.1h-4.814v8.523h4.814c1.793 0 3.162-.366 4.106-1.099m2.04-8.02C106.263 20.94 107 22.56 107 24.622c0 2.063-.736 3.683-2.209 4.858-1.472 1.177-3.493 1.765-6.06 1.765h-4.9V37H91V18h7.731c2.567 0 4.588.588 6.06 1.764M111.518 37.515c-1.072-.323-1.911-.735-2.518-1.234l1.071-2.107c.625.462 1.384.832 2.277 1.109a9.073 9.073 0 0 0 2.706.415c2.25 0 3.375-.665 3.375-1.996 0-.443-.152-.794-.456-1.053a2.847 2.847 0 0 0-1.138-.569 24.972 24.972 0 0 0-1.942-.402c-1.143-.185-2.076-.398-2.8-.637a4.284 4.284 0 0 1-1.86-1.221c-.52-.573-.778-1.376-.778-2.412 0-1.33.536-2.398 1.608-3.202 1.07-.804 2.508-1.206 4.312-1.206.946 0 1.892.12 2.84.36.945.241 1.722.565 2.33.97l-1.099 2.108c-1.16-.776-2.527-1.164-4.098-1.164-1.09 0-1.92.185-2.49.554-.573.37-.858.86-.858 1.47 0 .48.16.858.482 1.136.322.278.719.48 1.192.61s1.138.278 1.996.444c1.142.203 2.066.42 2.772.652a4.13 4.13 0 0 1 1.808 1.177c.5.555.75 1.332.75 2.33 0 1.33-.55 2.39-1.647 3.174-1.099.786-2.595 1.179-4.487 1.179-1.161 0-2.277-.162-3.348-.485M138 23l-7.065 15.972c-.624 1.48-1.352 2.522-2.185 3.125-.835.602-1.839.903-3.01.903a6.391 6.391 0 0 1-2.077-.342c-.669-.229-1.222-.561-1.663-1l1.127-1.972c.752.712 1.622 1.068 2.612 1.068.642 0 1.177-.17 1.608-.508.43-.337.82-.917 1.169-1.739l.467-1.014L122.55 23h2.749l5.086 11.617L135.415 23H138zM143.215 37.316c-1.364-.457-2.437-1.048-3.215-1.774l1.03-2.18c.741.672 1.692 1.216 2.851 1.635 1.161.418 2.353.628 3.577.628 1.614 0 2.82-.275 3.618-.824.797-.549 1.197-1.28 1.197-2.192 0-.67-.219-1.215-.653-1.634-.438-.42-.974-.74-1.615-.965-.64-.222-1.545-.474-2.714-.754-1.466-.352-2.648-.706-3.548-1.061a5.85 5.85 0 0 1-2.31-1.634c-.64-.735-.96-1.726-.96-2.974 0-1.043.273-1.984.82-2.822.549-.838 1.379-1.508 2.491-2.01 1.115-.504 2.496-.755 4.147-.755 1.151 0 2.283.15 3.396.447 1.113.298 2.069.726 2.866 1.285l-.918 2.234a10.1 10.1 0 0 0-2.616-1.187 9.749 9.749 0 0 0-2.728-.405c-1.576 0-2.759.289-3.547.866-.79.578-1.184 1.322-1.184 2.234 0 .671.223 1.216.67 1.635.444.418.995.745 1.653.978.66.232 1.555.48 2.687.739 1.466.355 2.643.709 3.534 1.061.89.355 1.656.894 2.296 1.621.64.727.96 1.703.96 2.933 0 1.024-.277 1.96-.834 2.807-.558.848-1.402 1.518-2.533 2.012-1.132.493-2.524.74-4.175.74-1.466 0-2.88-.228-4.243-.684M161.99 26.41c-.82.777-1.303 1.794-1.444 3.05h9.015c-.142-1.238-.624-2.25-1.445-3.036-.822-.785-1.842-1.178-3.062-1.178-1.22 0-2.24.388-3.063 1.164m9.956 4.963h-11.4c.158 1.295.702 2.334 1.63 3.12.927.786 2.081 1.178 3.46 1.178 1.678 0 3.031-.591 4.056-1.775l1.405 1.72a6.163 6.163 0 0 1-2.373 1.774c-.946.407-2.002.61-3.167.61-1.485 0-2.803-.319-3.951-.957a6.656 6.656 0 0 1-2.666-2.675c-.627-1.146-.941-2.44-.941-3.882 0-1.423.306-2.707.916-3.854.609-1.146 1.448-2.038 2.518-2.675 1.07-.638 2.276-.957 3.62-.957 1.342 0 2.54.319 3.592.957 1.052.637 1.874 1.53 2.466 2.675.592 1.147.888 2.459.888 3.937 0 .204-.017.472-.053.804M176.517 37.515c-1.07-.323-1.911-.735-2.517-1.234l1.07-2.107c.625.462 1.385.832 2.278 1.109a9.069 9.069 0 0 0 2.705.415c2.251 0 3.375-.665 3.375-1.996 0-.443-.152-.794-.455-1.053a2.842 2.842 0 0 0-1.138-.569 24.896 24.896 0 0 0-1.943-.402c-1.143-.185-2.076-.398-2.799-.637a4.284 4.284 0 0 1-1.862-1.221c-.517-.573-.776-1.376-.776-2.412 0-1.33.536-2.398 1.607-3.202 1.071-.804 2.508-1.206 4.313-1.206.947 0 1.893.12 2.84.36.945.241 1.723.565 2.33.97l-1.099 2.108c-1.16-.776-2.527-1.164-4.098-1.164-1.09 0-1.92.185-2.491.554-.572.37-.858.86-.858 1.47 0 .48.161.858.483 1.136.321.278.719.48 1.192.61s1.139.278 1.996.444c1.142.203 2.067.42 2.772.652.706.23 1.308.623 1.808 1.177.5.555.75 1.332.75 2.33 0 1.33-.55 2.39-1.647 3.174-1.098.786-2.595 1.179-4.487 1.179-1.162 0-2.277-.162-3.349-.485M191.517 37.515c-1.07-.323-1.911-.735-2.517-1.234l1.07-2.107c.625.462 1.385.832 2.278 1.109a9.069 9.069 0 0 0 2.705.415c2.251 0 3.375-.665 3.375-1.996 0-.443-.152-.794-.455-1.053a2.842 2.842 0 0 0-1.138-.569 24.896 24.896 0 0 0-1.943-.402c-1.143-.185-2.076-.398-2.799-.637a4.284 4.284 0 0 1-1.862-1.221c-.517-.573-.776-1.376-.776-2.412 0-1.33.536-2.398 1.607-3.202 1.071-.804 2.508-1.206 4.313-1.206.947 0 1.893.12 2.84.36.945.241 1.723.565 2.33.97l-1.099 2.108c-1.16-.776-2.527-1.164-4.098-1.164-1.09 0-1.92.185-2.491.554-.572.37-.858.86-.858 1.47 0 .48.161.858.483 1.136.321.278.719.48 1.192.61s1.139.278 1.996.444c1.142.203 2.067.42 2.772.652.706.23 1.308.623 1.808 1.177.5.555.75 1.332.75 2.33 0 1.33-.55 2.39-1.647 3.174-1.098.786-2.595 1.179-4.487 1.179-1.162 0-2.277-.162-3.349-.485M204.523 38h2.955V23.297h-2.955V38zm.046-18.032c-.379-.333-.569-.739-.569-1.22 0-.48.19-.893.57-1.235.38-.342.855-.513 1.43-.513s1.052.162 1.43.485c.38.324.57.727.57 1.207 0 .5-.19.92-.57 1.262-.378.342-.855.514-1.43.514s-1.05-.167-1.43-.5zM221.005 35.02a4.557 4.557 0 0 0 1.728-1.83c.418-.786.626-1.687.626-2.704 0-1.016-.208-1.918-.626-2.704a4.471 4.471 0 0 0-1.728-1.816c-.735-.425-1.566-.638-2.491-.638-.926 0-1.756.213-2.491.638a4.559 4.559 0 0 0-1.742 1.816c-.427.786-.64 1.688-.64 2.704 0 1.017.213 1.918.64 2.704a4.648 4.648 0 0 0 1.742 1.83c.735.434 1.565.652 2.49.652.926 0 1.757-.218 2.492-.653m-6.356 2.011a6.98 6.98 0 0 1-2.683-2.675c-.644-1.138-.966-2.427-.966-3.87 0-1.44.322-2.73.966-3.867a6.876 6.876 0 0 1 2.683-2.661c1.142-.639 2.431-.957 3.865-.957 1.434 0 2.717.318 3.852.957a6.904 6.904 0 0 1 2.668 2.66c.644 1.138.966 2.428.966 3.869 0 1.442-.322 2.73-.966 3.869a7.008 7.008 0 0 1-2.668 2.675c-1.135.647-2.418.97-3.852.97-1.434 0-2.723-.323-3.865-.97M241.344 24.64c1.104 1.093 1.656 2.697 1.656 4.808V38h-2.672v-8.243c0-1.44-.343-2.523-1.03-3.252-.687-.73-1.67-1.094-2.95-1.094-1.447 0-2.589.425-3.424 1.275-.835.851-1.251 2.071-1.251 3.66V38H229V23.14h2.56v2.242c.538-.765 1.267-1.354 2.186-1.765.918-.412 1.962-.617 3.13-.617 1.875 0 3.364.547 4.468 1.64"/>
        <path fill="#00C4F2" d="M144 58h1V46h-1zM178 58h1V46h-1z"/>
        <path fill="#FFF" d="M93.077 52.822L91 48h.97l1.423 3.485.147.698h.022l.147-.72L95.086 48H96l-2.077 4.811V56h-.846zM95.838 53c0 .336.02.641.062.916.04.275.108.512.2.71.094.198.215.353.364.463a.868.868 0 0 0 .537.167c.386 0 .677-.178.87-.533.194-.355.29-.929.29-1.723 0-.327-.02-.631-.06-.91a2.567 2.567 0 0 0-.201-.715 1.195 1.195 0 0 0-.363-.464.876.876 0 0 0-.536-.166c-.38 0-.67.18-.866.538-.199.359-.297.932-.297 1.717M95 53c0-1.03.174-1.787.52-2.272.346-.485.84-.728 1.48-.728.686 0 1.19.248 1.515.745.323.496.485 1.248.485 2.255 0 1.039-.174 1.798-.525 2.278-.35.482-.842.722-1.474.722-.686 0-1.19-.248-1.515-.744C95.162 54.76 95 54.008 95 53M100.867 50v3.585c0 .594.063 1.019.187 1.273.125.253.351.38.68.38a.986.986 0 0 0 .453-.1c.132-.066.25-.154.355-.263.104-.109.197-.235.278-.375.079-.141.144-.286.192-.433V50h.868v4.194c0 .283.01.574.03.873.02.302.05.566.09.792h-.615l-.216-.82h-.036a2.04 2.04 0 0 1-.591.674c-.257.191-.579.287-.963.287a2.18 2.18 0 0 1-.675-.094 1.05 1.05 0 0 1-.494-.34c-.137-.164-.24-.388-.307-.674-.07-.284-.103-.65-.103-1.095V50h.867zM106 50.105h.486l.123.625h.029c.09-.227.205-.407.347-.537a.747.747 0 0 1 .52-.193c.145 0 .31.035.495.105l-.134.861a1.137 1.137 0 0 0-.438-.106.63.63 0 0 0-.495.217 1.14 1.14 0 0 0-.247.585V56H106v-5.895zM110 50.35h.71v-1.096l.836-.254v1.35h1.256v.718h-1.256v3.295c0 .325.041.56.123.702.081.144.215.216.4.216.155 0 .29-.016.402-.05.112-.033.234-.075.366-.126l.163.63a2.828 2.828 0 0 1-1.21.265c-.387 0-.664-.12-.83-.359-.168-.24-.25-.629-.25-1.167v-3.406H110v-.719zM117.122 56v-3.474c0-.533-.067-.94-.201-1.218-.135-.278-.4-.417-.799-.417-.284 0-.543.096-.775.287-.23.19-.388.429-.47.72V56H114v-8h.878v2.823h.036a1.94 1.94 0 0 1 .604-.486c.24-.126.539-.19.896-.19.27 0 .502.036.702.105.199.068.363.186.494.353.13.169.227.391.292.67.065.277.098.622.098 1.033V56h-.878zM122.174 52.405c.015-.573-.069-.992-.252-1.26a.87.87 0 0 0-.754-.4c-.368 0-.659.133-.875.4-.215.268-.343.687-.383 1.26h2.264zm.67 3.069a1.99 1.99 0 0 1-.73.39 3.132 3.132 0 0 1-.934.136c-.376 0-.702-.07-.977-.211a1.831 1.831 0 0 1-.683-.608 2.752 2.752 0 0 1-.395-.944A5.595 5.595 0 0 1 119 53c0-.978.188-1.722.563-2.233.376-.512.906-.768 1.593-.768.223 0 .444.027.664.081.22.053.417.16.593.32s.317.386.425.676c.108.29.162.668.162 1.134 0 .13-.006.269-.018.418-.012.148-.027.303-.042.463h-3.042c0 .328.028.626.083.893.057.267.144.494.264.682.12.187.274.332.461.435.187.103.421.154.7.154.217 0 .43-.038.642-.115.211-.075.373-.167.485-.274l.311.607zM124 50.105h.486l.124.625h.029c.088-.227.204-.407.346-.537a.747.747 0 0 1 .52-.193c.145 0 .31.035.495.105l-.134.861a1.134 1.134 0 0 0-.437-.106.631.631 0 0 0-.496.217c-.126.147-.21.34-.247.585V56H124v-5.895zM128.99 53.263a4.872 4.872 0 0 0-.492-.023c-.197 0-.39.014-.578.045a1.705 1.705 0 0 0-.506.164.936.936 0 0 0-.35.314.906.906 0 0 0-.13.501c0 .311.08.552.241.722.16.172.367.257.622.257.344 0 .611-.078.8-.233.189-.155.32-.326.394-.513v-1.234zm-2.678-2.82c.24-.14.534-.249.877-.326A4.964 4.964 0 0 1 128.28 50c.35 0 .63.05.84.146.214.097.379.228.5.396.12.167.199.358.236.57.038.215.057.437.057.67 0 .467-.011.921-.032 1.364a26.12 26.12 0 0 0-.033 1.258c0 .295.011.57.033.821.02.253.06.492.119.717h-.703l-.217-.687h-.05a1.632 1.632 0 0 1-.544.524c-.239.147-.56.221-.964.221-.446 0-.81-.146-1.095-.437-.284-.29-.427-.693-.427-1.206 0-.333.06-.612.18-.838a1.44 1.44 0 0 1 .507-.548 2.21 2.21 0 0 1 .778-.297c.3-.058.637-.088 1.007-.088h.247c.082 0 .17.005.26.013a6.31 6.31 0 0 0 .037-.642c0-.443-.07-.752-.21-.931-.14-.179-.395-.268-.765-.268-.23 0-.481.032-.753.1-.272.065-.499.148-.68.25l-.296-.665zM131.847 54.865c.11.09.233.161.37.214.139.052.32.079.549.079.415 0 .745-.203.987-.607.243-.405.365-.98.365-1.73 0-.315-.021-.6-.065-.855a2.292 2.292 0 0 0-.206-.657 1.149 1.149 0 0 0-.358-.427.92.92 0 0 0-.536-.152c-.572 0-.941.334-1.106 1v3.135zm-.847-4.73h.6l.13.606h.047c.29-.494.745-.741 1.365-.741.619 0 1.083.222 1.393.663.31.443.465 1.166.465 2.168 0 .473-.05.898-.153 1.276-.102.378-.246.7-.435.966a1.895 1.895 0 0 1-.688.607c-.27.14-.57.208-.9.208-.228 0-.408-.014-.54-.04a1.65 1.65 0 0 1-.437-.162V58H131v-7.865zM136.924 53.665l.229 1.1h.055l.163-1.1.832-3.665H139l-1.3 5.095c-.103.409-.204.791-.306 1.146a6.64 6.64 0 0 1-.333.925c-.12.261-.255.465-.405.613a.733.733 0 0 1-.53.221c-.204 0-.384-.034-.535-.102l.13-.771a.542.542 0 0 0 .306.022.547.547 0 0 0 .29-.193c.091-.106.175-.263.252-.47.076-.208.143-.479.202-.812L135 50h.897l1.027 3.665zM150.853 52c0 .434.031.847.092 1.238.061.39.156.733.286 1.027.13.295.3.53.508.708.208.176.46.265.756.265.54 0 .95-.265 1.231-.796.281-.53.422-1.344.422-2.442 0-.428-.031-.837-.092-1.227a4.249 4.249 0 0 0-.287-1.032 1.908 1.908 0 0 0-.508-.714 1.147 1.147 0 0 0-.766-.265c-.533 0-.94.265-1.22.796-.281.53-.422 1.344-.422 2.442M150 52c0-1.311.206-2.306.616-2.983.41-.678 1.036-1.017 1.879-1.017.453 0 .839.094 1.155.282.317.188.574.454.773.8.198.348.343.767.437 1.26.094.495.14 1.047.14 1.658 0 1.312-.206 2.306-.621 2.983-.415.679-1.042 1.017-1.884 1.017-.446 0-.828-.094-1.144-.282a2.18 2.18 0 0 1-.778-.8c-.202-.348-.347-.767-.438-1.26A9.237 9.237 0 0 1 150 52M159.122 56v-3.573c0-.586-.071-1.01-.214-1.272-.142-.262-.396-.393-.761-.393-.326 0-.595.094-.806.282a1.642 1.642 0 0 0-.463.691V56H156v-5.858h.634l.158.62h.038a1.94 1.94 0 0 1 .627-.539 1.91 1.91 0 0 1 .945-.223c.261 0 .49.036.69.106.198.07.365.19.5.357.133.168.235.393.304.674.07.282.104.637.104 1.067V56h-.878zM161.878 54.538c0 .261.039.449.116.562a.37.37 0 0 0 .323.168c.17 0 .37-.04.597-.124l.086.654c-.106.06-.254.108-.445.146-.19.037-.364.056-.518.056-.31 0-.56-.089-.75-.264-.191-.176-.287-.486-.287-.929V48h.878v6.538zM164.13 55h.72v-5.665h-.72V55zm-.13-7.388c0-.181.045-.328.135-.442a.431.431 0 0 1 .355-.17c.146 0 .268.054.365.165.096.11.145.258.145.447 0 .181-.049.323-.145.425a.48.48 0 0 1-.365.153.442.442 0 0 1-.355-.158.629.629 0 0 1-.135-.42zM168.122 56v-3.573c0-.586-.07-1.01-.213-1.272-.142-.262-.397-.393-.762-.393-.325 0-.593.094-.806.282a1.625 1.625 0 0 0-.462.691V56H165v-5.858h.634l.158.62h.037a1.91 1.91 0 0 1 1.574-.762c.26 0 .489.036.688.106.2.07.366.19.5.357.134.168.237.393.306.674.069.282.103.637.103 1.067V56h-.878zM173.173 52.405c.016-.573-.067-.992-.251-1.26a.87.87 0 0 0-.754-.4c-.368 0-.659.133-.874.4-.217.268-.344.687-.385 1.26h2.264zm.671 3.069a1.987 1.987 0 0 1-.73.39 3.142 3.142 0 0 1-.934.136c-.376 0-.702-.07-.977-.211a1.831 1.831 0 0 1-.683-.608 2.734 2.734 0 0 1-.394-.944A5.542 5.542 0 0 1 170 53c0-.978.188-1.722.562-2.233.377-.512.907-.768 1.594-.768.222 0 .444.027.664.081.22.053.417.16.593.32s.317.386.425.676c.108.29.162.668.162 1.134 0 .13-.006.269-.018.418-.012.148-.026.303-.041.463h-3.043c0 .328.028.626.083.893.056.267.144.494.264.682.12.187.274.332.461.435.188.103.421.154.7.154.216 0 .43-.038.642-.115.211-.075.373-.167.485-.274l.311.607zM189 48.788h-2.052V56h-.896v-7.212H184V48h5zM189 50.105h.485l.124.625h.029c.088-.227.204-.407.347-.537a.744.744 0 0 1 .52-.193c.145 0 .31.035.495.105l-.134.861a1.134 1.134 0 0 0-.438-.106.63.63 0 0 0-.495.217 1.14 1.14 0 0 0-.247.585V56H189v-5.895zM192.867 50v3.585c0 .594.062 1.019.187 1.273.124.253.351.38.68.38.17 0 .32-.032.452-.1.133-.066.251-.154.355-.263.105-.109.198-.235.279-.375a2.44 2.44 0 0 0 .191-.433V50h.867v4.194c0 .283.01.574.03.873.021.302.051.566.092.792h-.615l-.217-.82h-.036a2.02 2.02 0 0 1-.59.674c-.258.191-.58.287-.964.287-.256 0-.481-.031-.675-.094a1.051 1.051 0 0 1-.493-.34c-.137-.164-.24-.388-.307-.674-.069-.284-.103-.65-.103-1.095V50h.867zM200.174 52.405c.016-.573-.068-.992-.251-1.26a.872.872 0 0 0-.755-.4c-.368 0-.659.133-.874.4-.216.268-.344.687-.385 1.26h2.265zm.67 3.069a1.987 1.987 0 0 1-.73.39 3.138 3.138 0 0 1-.934.136c-.376 0-.702-.07-.977-.211a1.823 1.823 0 0 1-.682-.608 2.735 2.735 0 0 1-.395-.944A5.542 5.542 0 0 1 197 53c0-.978.189-1.722.562-2.233.377-.512.907-.768 1.594-.768.222 0 .445.027.665.081.22.053.417.16.592.32.176.16.318.386.425.676.108.29.162.668.162 1.134 0 .13-.006.269-.018.418-.012.148-.026.303-.041.463h-3.043c0 .328.028.626.083.893.057.267.145.494.264.682.121.187.274.332.462.435.187.103.42.154.7.154.216 0 .43-.038.642-.115.21-.075.372-.167.485-.274l.31.607zM202.878 54.538c0 .261.04.449.117.562a.37.37 0 0 0 .323.168c.17 0 .37-.04.596-.124l.086.654c-.106.06-.254.108-.445.146-.19.037-.364.056-.517.056-.31 0-.56-.089-.75-.264-.192-.176-.288-.486-.288-.929V48h.878v6.538zM205.924 53.665l.23 1.1h.054l.164-1.1.831-3.665H208l-1.3 5.095c-.103.409-.204.791-.306 1.146a6.537 6.537 0 0 1-.334.925 2.06 2.06 0 0 1-.404.613.731.731 0 0 1-.53.221 1.3 1.3 0 0 1-.535-.102l.13-.771a.544.544 0 0 0 .307.022.543.543 0 0 0 .29-.193c.09-.106.174-.263.25-.47.078-.208.144-.479.203-.812L204 50h.897l1.027 3.665zM213.173 52.405c.016-.573-.067-.992-.251-1.26a.87.87 0 0 0-.754-.4c-.368 0-.659.133-.874.4-.217.268-.344.687-.385 1.26h2.264zm.671 3.069a1.987 1.987 0 0 1-.73.39 3.138 3.138 0 0 1-.934.136c-.376 0-.702-.07-.977-.211a1.831 1.831 0 0 1-.683-.608 2.734 2.734 0 0 1-.394-.944A5.542 5.542 0 0 1 210 53c0-.978.188-1.722.562-2.233.377-.512.907-.768 1.594-.768.222 0 .444.027.665.081.22.053.416.16.592.32s.318.386.425.676c.108.29.162.668.162 1.134 0 .13-.006.269-.018.418-.012.148-.026.303-.041.463h-3.043c0 .328.028.626.083.893.057.267.144.494.264.682.12.187.274.332.461.435.188.103.421.154.7.154.216 0 .43-.038.642-.115.211-.075.373-.167.485-.274l.311.607zM215 49.334h.678v-.318c0-.71.1-1.224.3-1.54.2-.318.54-.476 1.022-.476.193 0 .368.01.523.034.156.022.314.071.477.146l-.2.703c-.132-.06-.257-.1-.372-.119a2.15 2.15 0 0 0-.328-.028.572.572 0 0 0-.344.09.527.527 0 0 0-.183.284 2.042 2.042 0 0 0-.079.493c-.01.2-.016.444-.016.731h1.156v.737h-1.156V55h-.8v-4.93H215v-.736zM218 49.334h.678v-.318c0-.71.1-1.224.3-1.54.2-.318.54-.476 1.022-.476.193 0 .367.01.523.034.155.022.314.071.477.146l-.2.703c-.133-.06-.257-.1-.372-.119a2.16 2.16 0 0 0-.328-.028.569.569 0 0 0-.344.09.532.532 0 0 0-.184.284 2.042 2.042 0 0 0-.078.493c-.011.2-.016.444-.016.731h1.155v.737h-1.155V55h-.8v-4.93H218v-.736zM224.174 52.405c.016-.573-.068-.992-.252-1.26a.872.872 0 0 0-.755-.4c-.367 0-.657.133-.873.4-.216.268-.345.687-.384 1.26h2.264zm.67 3.069a1.998 1.998 0 0 1-.73.39 3.139 3.139 0 0 1-.935.136c-.374 0-.7-.07-.975-.211a1.825 1.825 0 0 1-.684-.608 2.752 2.752 0 0 1-.395-.944A5.594 5.594 0 0 1 221 53c0-.978.188-1.722.562-2.233.377-.512.907-.768 1.594-.768.223 0 .445.027.664.081.22.053.418.16.593.32.176.16.318.386.426.676.107.29.161.668.161 1.134 0 .13-.006.269-.018.418-.012.148-.026.303-.041.463h-3.043c0 .328.028.626.083.893.056.267.145.494.265.682.12.187.273.332.46.435.188.103.422.154.701.154.215 0 .429-.038.641-.115.212-.075.373-.167.486-.274l.31.607zM229 55.576a1.622 1.622 0 0 1-.573.322c-.216.068-.44.102-.675.102-.323 0-.594-.07-.816-.211-.221-.141-.4-.345-.538-.608a3.22 3.22 0 0 1-.302-.95A7.239 7.239 0 0 1 226 53c0-.977.153-1.72.458-2.232.306-.512.743-.768 1.314-.768.261 0 .487.027.674.08.188.054.35.122.483.206l-.201.722a1.56 1.56 0 0 0-.876-.263c-.362 0-.636.181-.82.544-.185.362-.277.933-.277 1.711 0 .313.02.607.06.883.04.274.108.513.202.714.094.203.214.363.363.482a.852.852 0 0 0 .554.177c.173 0 .336-.034.487-.103.151-.07.273-.149.367-.24l.212.663zM230 50.35h.71v-1.096l.837-.254v1.35h1.256v.718h-1.256v3.295c0 .325.04.56.122.702.082.144.216.216.4.216.156 0 .29-.016.403-.05a4.8 4.8 0 0 0 .366-.126l.162.63a2.802 2.802 0 0 1-1.21.265c-.387 0-.664-.12-.83-.359-.167-.24-.25-.629-.25-1.167v-3.406H230v-.719zM234.13 55h.72v-5.665h-.72V55zm-.13-7.388c0-.181.045-.328.135-.442a.43.43 0 0 1 .355-.17c.147 0 .268.054.365.165.098.11.145.258.145.447 0 .181-.047.323-.145.425a.482.482 0 0 1-.365.153.441.441 0 0 1-.355-.158.625.625 0 0 1-.135-.42zM236.853 53.44l.21 1.163h.021l.19-1.186.925-3.417H239l-1.8 6h-.368L235 50h.864zM243.174 52.405c.016-.573-.068-.992-.251-1.26a.872.872 0 0 0-.755-.4c-.368 0-.659.133-.874.4-.216.268-.344.687-.385 1.26h2.265zm.67 3.069a1.998 1.998 0 0 1-.73.39 3.138 3.138 0 0 1-.934.136c-.376 0-.702-.07-.977-.211a1.823 1.823 0 0 1-.682-.608 2.735 2.735 0 0 1-.395-.944A5.542 5.542 0 0 1 240 53c0-.978.189-1.722.563-2.233.376-.512.906-.768 1.593-.768.222 0 .445.027.665.081.22.053.417.16.592.32.176.16.318.386.426.676.107.29.161.668.161 1.134 0 .13-.006.269-.018.418-.012.148-.026.303-.041.463h-3.043c0 .328.028.626.083.893.057.267.145.494.264.682.121.187.274.332.462.435.187.103.42.154.7.154.216 0 .43-.038.642-.115.21-.075.372-.167.485-.274l.31.607z"/>
    </g>
</svg>
